<?xml version="1.0" standalone="no"?>
<!DOCTYPE svg PUBLIC "-//W3C//DTD SVG 20010904//EN"
 "http://www.w3.org/TR/2001/REC-SVG-20010904/DTD/svg10.dtd">
<svg version="1.0" xmlns="http://www.w3.org/2000/svg"
 width="1280.000000pt" height="950.000000pt" viewBox="0 0 1280.000000 950.000000"
 preserveAspectRatio="xMidYMid meet">
<g transform="translate(0.000000,950.000000) scale(0.100000,-0.100000)"
fill="#3f51b5" stroke="none">
<path d="M563 8188 c-5 -7 -31 -114 -57 -238 -26 -124 -50 -233 -52 -242 -5
-17 37 -18 783 -18 616 0 793 -3 806 -12 15 -12 253 -548 1261 -2843 262 -597
283 -641 406 -846 127 -213 140 -230 711 -945 319 -401 592 -741 605 -757 l24
-27 2368 2 2367 3 71 215 c39 118 69 218 67 222 -2 5 -1056 8 -2341 8 l-2337
0 -418 526 c-249 314 -415 530 -409 536 5 5 256 22 558 38 302 16 632 34 734
40 102 5 442 24 755 40 314 17 737 39 940 50 572 31 1819 97 2445 130 311 16
608 32 661 36 l96 6 682 1371 683 1372 -4 100 -3 100 -45 64 c-42 61 -50 67
-134 103 l-90 38 -4093 0 c-3892 0 -4093 -1 -4093 -17 1 -10 34 -108 74 -218
l73 -200 3898 -3 c2781 -1 3902 -5 3911 -13 19 -15 -202 -458 -231 -464 -11
-2 -432 -9 -935 -15 -503 -6 -1628 -19 -2500 -30 -872 -11 -2048 -24 -2615
-30 -566 -6 -1076 -15 -1131 -18 l-101 -7 74 -205 c41 -113 80 -210 86 -216 9
-7 179 -8 587 -3 3517 46 6058 79 6188 79 107 0 132 -3 132 -14 0 -8 -49 -113
-109 -234 l-110 -220 -53 -6 c-29 -3 -386 -14 -793 -26 -407 -11 -1181 -34
-1720 -50 -1832 -56 -2289 -69 -3015 -91 -399 -12 -728 -25 -733 -28 -4 -4 27
-103 69 -219 l77 -212 76 0 c41 0 204 5 361 10 157 6 989 33 1850 60 861 28
1844 59 2185 70 1624 52 1449 48 1453 30 2 -15 -225 -421 -250 -447 -20 -19
-6158 -347 -6175 -330 -7 7 -78 159 -157 337 -79 179 -342 775 -586 1325 -244
550 -501 1131 -571 1290 -71 160 -204 461 -297 670 l-168 380 -891 3 c-705 2
-892 -1 -900 -10z"/>
<path d="M5231 1834 c-87 -23 -171 -74 -242 -145 -146 -146 -193 -355 -125
-551 118 -336 526 -464 818 -255 142 101 219 252 219 432 0 248 -161 458 -397
519 -76 20 -201 20 -273 0z"/>
<path d="M9353 1835 c-90 -25 -174 -74 -244 -144 -108 -108 -154 -219 -154
-376 0 -78 5 -115 24 -168 74 -218 282 -367 509 -367 237 1 456 171 517 401
19 71 19 196 -1 273 -48 187 -214 346 -402 385 -72 15 -186 13 -249 -4z"/>
</g>
</svg>
